<svg width="155" height="52" viewBox="0 0 155 52" fill="none" xmlns="http://www.w3.org/2000/svg">
<g clip-path="url(#clip0)">
<path d="M142.657 4.69297e-05H12.3502C11.8752 4.69297e-05 11.4059 4.69298e-05 10.9322 0.00264693C10.5357 0.00524693 10.1423 0.0127999 9.7419 0.0191569C8.87213 0.0294293 8.0044 0.106226 7.14626 0.24888C6.28932 0.394639 5.45923 0.669437 4.68406 1.06398C3.90984 1.46186 3.20241 1.97886 2.58744 2.59624C1.96924 3.21188 1.45392 3.92347 1.0613 4.70366C0.667594 5.48229 0.394599 6.31667 0.25174 7.17797C0.107523 8.03819 0.0299192 8.90832 0.0196237 9.78057C0.00760337 10.1792 0.00633398 10.5791 0 10.9777V41.0262C0.00633398 41.4299 0.00760337 41.8209 0.0196237 42.2247C0.0299223 43.0969 0.107527 43.967 0.25174 44.8272C0.394204 45.689 0.667216 46.5238 1.0613 47.3028C1.45374 48.0804 1.96913 48.7891 2.58744 49.4013C3.20008 50.0215 3.90797 50.5388 4.68406 50.9337C5.45923 51.3293 6.28923 51.6057 7.14626 51.7537C8.00455 51.8952 8.87218 51.972 9.7419 51.9835C10.1423 51.9924 10.5357 51.9975 10.9322 51.9975C11.4059 52 11.8752 52 12.3502 52H142.657C143.122 52 143.595 52 144.061 51.9975C144.456 51.9975 144.86 51.9924 145.255 51.9835C146.123 51.9727 146.989 51.8958 147.846 51.7537C148.705 51.6047 149.538 51.3283 150.317 50.9337C151.093 50.5386 151.8 50.0213 152.412 49.4013C153.029 48.7867 153.545 48.0785 153.943 47.3028C154.334 46.5233 154.604 45.6885 154.744 44.8272C154.889 43.9669 154.969 43.097 154.985 42.2247C154.99 41.8209 154.99 41.4299 154.99 41.0262C155 40.5539 155 40.0842 155 39.6043V12.397C155 11.9209 155 11.4487 154.99 10.9777C154.99 10.5791 154.99 10.1792 154.985 9.78052C154.969 8.9082 154.889 8.03825 154.744 7.17792C154.604 6.31711 154.333 5.4828 153.943 4.7036C153.143 3.1398 151.875 1.86688 150.317 1.06386C149.538 0.670285 148.705 0.395559 147.846 0.248763C146.989 0.105481 146.123 0.028657 145.255 0.0189749C144.86 0.0126309 144.456 0.00501293 144.061 0.00247793C143.595 -0.00012207 143.122 -0.00012207 142.657 -0.00012207V4.69297e-05Z" fill="#A6A6A6"/>
<path d="M10.9386 50.8625C10.5439 50.8625 10.1588 50.8574 9.76723 50.8485C8.9561 50.8379 8.14686 50.7671 7.34615 50.6365C6.59953 50.5075 5.87626 50.2674 5.20019 49.9242C4.53031 49.5839 3.91934 49.1377 3.39066 48.6027C2.85433 48.0739 2.40781 47.4607 2.0688 46.7872C1.72605 46.1094 1.48885 45.3828 1.36546 44.6329C1.2322 43.827 1.16011 43.0122 1.14979 42.1954C1.14158 41.9212 1.13083 41.0083 1.13083 41.0083V10.9776C1.13083 10.9776 1.14228 10.0788 1.14986 9.81469C1.15973 8.99918 1.23141 8.1856 1.36427 7.381C1.48789 6.62898 1.72527 5.90032 2.06821 5.22027C2.40597 4.54728 2.85001 3.93357 3.38311 3.40294C3.91561 2.86726 4.52854 2.41874 5.19955 2.07372C5.87407 1.73167 6.59597 1.4933 7.34108 1.3666C8.14442 1.23474 8.95647 1.16345 9.77042 1.15332L10.9392 1.13745H144.055L145.237 1.15396C146.044 1.16358 146.848 1.23424 147.644 1.36533C148.397 1.49362 149.127 1.73365 149.809 2.07753C151.153 2.77283 152.247 3.87286 152.937 5.22344C153.274 5.8988 153.508 6.62151 153.63 7.36704C153.765 8.17824 153.84 8.99821 153.855 9.82041C153.859 10.1886 153.859 10.584 153.859 10.9776C153.869 11.4651 153.869 11.9291 153.869 12.3969V39.6042C153.869 40.0765 153.869 40.5373 153.859 41.002C153.859 41.4247 153.859 41.812 153.854 42.2106C153.839 43.0181 153.765 43.8234 153.633 44.6201C153.512 45.3755 153.276 46.1077 152.933 46.7911C152.592 47.4573 152.148 48.0652 151.618 48.5925C151.088 49.1304 150.476 49.5793 149.805 49.9218C149.125 50.2676 148.396 50.5085 147.644 50.6365C146.844 50.7678 146.034 50.8386 145.223 50.8485C144.844 50.8574 144.447 50.8625 144.061 50.8625L142.657 50.8651L10.9386 50.8625Z" fill="black"/>
<path d="M32.0827 26.3909C32.0966 25.3058 32.3838 24.2419 32.9175 23.2982C33.4512 22.3545 34.214 21.5615 35.1351 20.9932C34.55 20.1545 33.7781 19.4643 32.8807 18.9774C31.9832 18.4904 30.9851 18.2202 29.9654 18.1882C27.7903 17.9591 25.6816 19.4945 24.5732 19.4945C23.4434 19.4945 21.7368 18.211 19.8992 18.2489C18.7105 18.2875 17.5521 18.6344 16.5367 19.2559C15.5214 19.8773 14.6837 20.7522 14.1054 21.7952C11.6003 26.1481 13.4689 32.5455 15.8686 36.0641C17.0692 37.787 18.4723 39.7116 20.3084 39.6434C22.105 39.5686 22.776 38.4935 24.9447 38.4935C27.0933 38.4935 27.7229 39.6434 29.5961 39.6C31.524 39.5685 32.7387 37.8693 33.8972 36.1301C34.7598 34.9024 35.4236 33.5456 35.864 32.1098C34.7439 31.6344 33.7881 30.8385 33.1157 29.8215C32.4433 28.8046 32.084 27.6114 32.0827 26.3909Z" fill="white"/>
<path d="M28.5442 15.8741C29.5954 14.6076 30.1132 12.9798 29.9878 11.3363C28.3819 11.5056 26.8984 12.2759 25.8331 13.4938C25.3122 14.0888 24.9132 14.7809 24.659 15.5307C24.4048 16.2805 24.3004 17.0733 24.3516 17.8636C25.1549 17.8719 25.9496 17.6972 26.6758 17.3526C27.402 17.0079 28.0409 16.5024 28.5442 15.8741Z" fill="white"/>
<path d="M54.7934 35.2815H48.6622L47.1898 39.6449H44.5929L50.4002 23.5015H53.0983L58.9057 39.6449H56.2645L54.7934 35.2815ZM49.2972 33.268H54.1572L51.7614 26.1866H51.6943L49.2972 33.268Z" fill="white"/>
<path d="M71.4472 33.7606C71.4472 37.4182 69.4967 39.768 66.5532 39.768C65.8075 39.8072 65.066 39.6348 64.4134 39.2706C63.7609 38.9065 63.2237 38.3652 62.8634 37.7088H62.8077V43.5385H60.4005V27.8751H62.7306V29.8327H62.7748C63.1517 29.1795 63.698 28.641 64.3555 28.2746C65.013 27.9082 65.7572 27.7276 66.5089 27.7519C69.4853 27.7519 71.4472 30.1133 71.4472 33.7606ZM68.973 33.7606C68.973 31.3777 67.746 29.8111 65.8739 29.8111C64.0347 29.8111 62.7976 31.4107 62.7976 33.7606C62.7976 36.1321 64.0347 37.7203 65.8739 37.7203C67.746 37.7203 68.973 36.1651 68.973 33.7606Z" fill="white"/>
<path d="M84.3546 33.7606C84.3546 37.4181 82.4041 39.768 79.4606 39.768C78.7149 39.8072 77.9734 39.6348 77.3208 39.2706C76.6683 38.9064 76.1311 38.3652 75.7708 37.7088H75.7151V43.5385H73.3079V27.8751H75.6379V29.8327H75.6822C76.059 29.1795 76.6053 28.641 77.2628 28.2746C77.9204 27.9082 78.6646 27.7276 79.4163 27.7519C82.3927 27.7519 84.3546 30.1132 84.3546 33.7606ZM81.8804 33.7606C81.8804 31.3777 80.6534 29.8111 78.7813 29.8111C76.9421 29.8111 75.705 31.4107 75.705 33.7606C75.705 36.1321 76.9421 37.7203 78.7813 37.7203C80.6534 37.7203 81.8804 36.1651 81.8804 33.7606H81.8804Z" fill="white"/>
<path d="M92.8856 35.1469C93.064 36.7478 94.6135 37.7989 96.731 37.7989C98.76 37.7989 100.22 36.7477 100.22 35.3043C100.22 34.0513 99.3393 33.301 97.2547 32.7868L95.1701 32.2828C92.2165 31.5668 90.8453 30.1804 90.8453 27.9308C90.8453 25.1455 93.2638 23.2323 96.6981 23.2323C100.097 23.2323 102.427 25.1455 102.505 27.9308H100.075C99.93 26.3198 98.6031 25.3473 96.6639 25.3473C94.7248 25.3473 93.3979 26.3312 93.3979 27.7633C93.3979 28.9046 94.2454 29.5762 96.3186 30.0903L98.0908 30.527C101.391 31.3103 102.762 32.6408 102.762 35.0021C102.762 38.0223 100.365 39.9139 96.5526 39.9139C92.9855 39.9139 90.5771 38.0667 90.4215 35.1468L92.8856 35.1469Z" fill="white"/>
<path d="M107.957 25.0897V27.8751H110.187V29.7883H107.957V36.2768C107.957 37.2848 108.404 37.7546 109.384 37.7546C109.649 37.7499 109.913 37.7313 110.176 37.6987V39.6004C109.735 39.6831 109.287 39.7205 108.839 39.7121C106.464 39.7121 105.538 38.8171 105.538 36.5345V29.7883H103.833V27.8751H105.538V25.0897H107.957Z" fill="white"/>
<path d="M111.479 33.7606C111.479 30.0574 113.652 27.7303 117.041 27.7303C120.441 27.7303 122.604 30.0573 122.604 33.7606C122.604 37.474 120.453 39.7909 117.041 39.7909C113.631 39.7909 111.479 37.474 111.479 33.7606ZM120.152 33.7606C120.152 31.2203 118.992 29.721 117.041 29.721C115.091 29.721 113.932 31.2317 113.932 33.7606C113.932 36.3111 115.091 37.799 117.041 37.799C118.992 37.799 120.152 36.3111 120.152 33.7606H120.152Z" fill="white"/>
<path d="M124.588 27.8751H126.884V29.8784H126.94C127.095 29.2527 127.46 28.6998 127.974 28.3125C128.488 27.9253 129.119 27.7273 129.761 27.7519C130.038 27.751 130.315 27.7812 130.585 27.8421V30.1018C130.235 29.9944 129.87 29.9451 129.504 29.9558C129.154 29.9416 128.806 30.0035 128.482 30.1372C128.158 30.271 127.867 30.4734 127.629 30.7307C127.391 30.988 127.211 31.2939 127.101 31.6276C126.992 31.9613 126.956 32.3147 126.996 32.6637V39.6449H124.588L124.588 27.8751Z" fill="white"/>
<path d="M141.684 36.188C141.36 38.3246 139.287 39.7909 136.634 39.7909C133.223 39.7909 131.105 37.4968 131.105 33.8165C131.105 30.1247 133.234 27.7303 136.533 27.7303C139.778 27.7303 141.818 29.9673 141.818 33.5359V34.3636H133.535V34.5096C133.497 34.9428 133.551 35.3792 133.694 35.7898C133.836 36.2003 134.065 36.5758 134.363 36.8911C134.661 37.2064 135.023 37.4544 135.424 37.6186C135.826 37.7828 136.257 37.8594 136.69 37.8434C137.259 37.8969 137.83 37.7647 138.318 37.4664C138.806 37.1681 139.185 36.7198 139.398 36.188L141.684 36.188ZM133.547 32.6752H139.41C139.431 32.2857 139.372 31.8959 139.237 31.5304C139.101 31.1648 138.892 30.8313 138.622 30.5508C138.352 30.2703 138.027 30.0489 137.667 29.9004C137.308 29.7519 136.922 29.6796 136.533 29.688C136.141 29.6856 135.753 29.7612 135.39 29.9104C135.027 30.0595 134.697 30.2793 134.42 30.557C134.142 30.8348 133.922 31.1649 133.772 31.5285C133.622 31.892 133.546 32.2818 133.547 32.6752V32.6752Z" fill="white"/>
<path d="M48.9963 11.3504C49.5009 11.314 50.0073 11.3905 50.479 11.5744C50.9506 11.7583 51.3757 12.0449 51.7236 12.4136C52.0715 12.7823 52.3335 13.2239 52.4908 13.7066C52.648 14.1892 52.6966 14.7009 52.633 15.2046C52.633 17.6828 51.2985 19.1072 48.9963 19.1072H46.2046V11.3504H48.9963ZM47.405 18.0103H48.8622C49.2228 18.0319 49.5837 17.9725 49.9186 17.8365C50.2534 17.7006 50.5539 17.4913 50.7981 17.2241C51.0422 16.9568 51.2239 16.6383 51.33 16.2917C51.436 15.9451 51.4637 15.5792 51.411 15.2205C51.4599 14.8632 51.4294 14.4995 51.3217 14.1554C51.214 13.8113 51.0319 13.4954 50.7883 13.2303C50.5447 12.9652 50.2457 12.7575 49.9127 12.622C49.5797 12.4865 49.2209 12.4265 48.8622 12.4465H47.405V18.0103Z" fill="white"/>
<path d="M53.989 16.1777C53.9524 15.793 53.9962 15.4048 54.1178 15.0381C54.2393 14.6715 54.4359 14.3343 54.6949 14.0483C54.9538 13.7624 55.2695 13.5339 55.6216 13.3775C55.9738 13.2211 56.3546 13.1404 56.7396 13.1404C57.1247 13.1404 57.5055 13.2211 57.8576 13.3775C58.2097 13.5339 58.5254 13.7624 58.7844 14.0483C59.0434 14.3343 59.2399 14.6715 59.3615 15.0381C59.483 15.4048 59.5269 15.793 59.4902 16.1777C59.5276 16.5628 59.4843 16.9514 59.363 17.3187C59.2418 17.686 59.0454 18.0238 58.7863 18.3103C58.5273 18.5968 58.2113 18.8258 57.8589 18.9825C57.5064 19.1392 57.1251 19.2202 56.7396 19.2202C56.3541 19.2202 55.9729 19.1392 55.6204 18.9825C55.2679 18.8258 54.952 18.5968 54.6929 18.3103C54.4339 18.0238 54.2374 17.686 54.1162 17.3187C53.995 16.9514 53.9517 16.5628 53.989 16.1777ZM58.3062 16.1777C58.3062 14.9088 57.7383 14.1667 56.7415 14.1667C55.741 14.1667 55.1781 14.9088 55.1781 16.1777C55.1781 17.4567 55.741 18.1931 56.7415 18.1931C57.7383 18.193 58.3063 17.4516 58.3063 16.1777H58.3062Z" fill="white"/>
<path d="M66.8027 19.1071H65.6087L64.4032 14.7958H64.3121L63.1117 19.1071H61.929L60.3212 13.2533H61.4888L62.5336 17.7201H62.6196L63.8188 13.2533H64.9231L66.1222 17.7201H66.2133L67.2531 13.2533H68.4042L66.8027 19.1071Z" fill="white"/>
<path d="M69.7561 13.2533H70.8642V14.1832H70.9502C71.0961 13.8492 71.3422 13.5692 71.6542 13.3823C71.9662 13.1953 72.3285 13.1107 72.6907 13.1403C72.9745 13.1189 73.2595 13.1618 73.5245 13.2659C73.7895 13.3701 74.0278 13.5327 74.2217 13.7418C74.4156 13.9509 74.5601 14.2011 74.6445 14.4739C74.729 14.7466 74.7512 15.035 74.7096 15.3175V19.107H73.5585V15.6076C73.5585 14.6669 73.1512 14.1991 72.2999 14.1991C72.1072 14.1901 71.9148 14.223 71.736 14.2956C71.5572 14.3681 71.3961 14.4787 71.2638 14.6196C71.1315 14.7605 71.0312 14.9284 70.9696 15.1119C70.9081 15.2954 70.8867 15.49 70.9072 15.6825V19.1071H69.7561L69.7561 13.2533Z" fill="white"/>
<path d="M76.5437 10.9681H77.6948V19.1071H76.5437V10.9681Z" fill="white"/>
<path d="M79.2953 16.1777C79.2587 15.7929 79.3025 15.4048 79.4241 15.0381C79.5457 14.6714 79.7423 14.3342 80.0013 14.0482C80.2603 13.7622 80.576 13.5338 80.9282 13.3774C81.2803 13.221 81.6611 13.1403 82.0462 13.1403C82.4313 13.1403 82.8121 13.221 83.1643 13.3774C83.5164 13.5338 83.8321 13.7622 84.0911 14.0482C84.3501 14.3342 84.5467 14.6714 84.6683 15.0381C84.7899 15.4048 84.8338 15.7929 84.7971 16.1777C84.8344 16.5628 84.7911 16.9514 84.6698 17.3187C84.5486 17.686 84.3521 18.0238 84.093 18.3103C83.8339 18.5968 83.518 18.8258 83.1655 18.9825C82.813 19.1392 82.4317 19.2201 82.0462 19.2201C81.6607 19.2201 81.2794 19.1392 80.9269 18.9825C80.5745 18.8258 80.2585 18.5968 79.9994 18.3103C79.7404 18.0238 79.5439 17.686 79.4226 17.3187C79.3013 16.9514 79.258 16.5628 79.2953 16.1777ZM83.6125 16.1777C83.6125 14.9088 83.0446 14.1667 82.0478 14.1667C81.0472 14.1667 80.4844 14.9088 80.4844 16.1777C80.4844 17.4567 81.0473 18.193 82.0478 18.193C83.0446 18.193 83.6125 17.4516 83.6125 16.1777H83.6125Z" fill="white"/>
<path d="M86.009 17.4517C86.009 16.398 86.7908 15.7905 88.1784 15.7042L89.7583 15.6128V15.1075C89.7583 14.4892 89.351 14.1401 88.5642 14.1401C87.9216 14.1401 87.4764 14.3769 87.3486 14.7908H86.2342C86.3518 13.7853 87.2942 13.1404 88.6173 13.1404C90.0796 13.1404 90.9043 13.871 90.9043 15.1075V19.1072H89.7963V18.2845H89.7052C89.5203 18.5796 89.2607 18.8202 88.9529 18.9816C88.6452 19.1431 88.3002 19.2197 87.9532 19.2036C87.7084 19.2292 87.4609 19.203 87.2268 19.1267C86.9926 19.0503 86.777 18.9256 86.5938 18.7606C86.4107 18.5955 86.264 18.3938 86.1633 18.1683C86.0625 17.9429 86.01 17.6988 86.009 17.4517ZM89.7583 16.9515V16.4621L88.334 16.5535C87.5307 16.6075 87.1664 16.8817 87.1664 17.3977C87.1664 17.9246 87.6218 18.2312 88.248 18.2312C88.4315 18.2498 88.6168 18.2312 88.793 18.1765C88.9691 18.1218 89.1325 18.0321 89.2735 17.9127C89.4144 17.7933 89.5299 17.6467 89.6132 17.4815C89.6965 17.3164 89.7458 17.1362 89.7583 16.9515Z" fill="white"/>
<path d="M92.4172 16.1777C92.4172 14.328 93.3646 13.1562 94.8383 13.1562C95.2028 13.1393 95.5645 13.227 95.8813 13.4088C96.198 13.5907 96.4566 13.8593 96.6269 14.1832H96.7129V10.9681H97.864V19.1071H96.761V18.1822H96.6699C96.4865 18.504 96.2188 18.7692 95.896 18.9493C95.5731 19.1293 95.2074 19.2172 94.8383 19.2036C93.3545 19.2036 92.4172 18.0318 92.4172 16.1777ZM93.6063 16.1777C93.6063 17.4193 94.1894 18.1664 95.1647 18.1664C96.1348 18.1664 96.7344 17.4085 96.7344 16.1828C96.7344 14.9627 96.1285 14.194 95.1647 14.194C94.1957 14.194 93.6062 14.9462 93.6062 16.1777H93.6063Z" fill="white"/>
<path d="M102.626 16.1777C102.59 15.793 102.633 15.4048 102.755 15.0381C102.877 14.6715 103.073 14.3343 103.332 14.0483C103.591 13.7624 103.907 13.5339 104.259 13.3775C104.611 13.2211 104.992 13.1404 105.377 13.1404C105.762 13.1404 106.143 13.2211 106.495 13.3775C106.847 13.5339 107.163 13.7624 107.422 14.0483C107.681 14.3343 107.877 14.6715 107.999 15.0381C108.12 15.4048 108.164 15.793 108.127 16.1777C108.165 16.5628 108.121 16.9514 108 17.3187C107.879 17.686 107.683 18.0238 107.424 18.3103C107.164 18.5968 106.849 18.8258 106.496 18.9825C106.144 19.1392 105.762 19.2202 105.377 19.2202C104.991 19.2202 104.61 19.1392 104.258 18.9825C103.905 18.8258 103.589 18.5968 103.33 18.3103C103.071 18.0238 102.875 17.686 102.753 17.3187C102.632 16.9514 102.589 16.5628 102.626 16.1777ZM106.943 16.1777C106.943 14.9088 106.376 14.1667 105.379 14.1667C104.378 14.1667 103.815 14.9088 103.815 16.1777C103.815 17.4567 104.378 18.1931 105.379 18.1931C106.376 18.193 106.943 17.4516 106.943 16.1777Z" fill="white"/>
<path d="M109.672 13.2533H110.78V14.1832H110.866C111.012 13.8492 111.258 13.5692 111.57 13.3823C111.882 13.1953 112.244 13.1107 112.607 13.1403C112.89 13.1189 113.175 13.1618 113.44 13.2659C113.705 13.3701 113.944 13.5327 114.137 13.7418C114.331 13.9509 114.476 14.2011 114.56 14.4739C114.645 14.7466 114.667 15.035 114.625 15.3175V19.107H113.474V15.6076C113.474 14.6669 113.067 14.1991 112.216 14.1991C112.023 14.1901 111.831 14.223 111.652 14.2956C111.473 14.3681 111.312 14.4787 111.18 14.6196C111.047 14.7605 110.947 14.9284 110.885 15.1119C110.824 15.2954 110.803 15.49 110.823 15.6825V19.1071H109.672V13.2533Z" fill="white"/>
<path d="M121.13 11.7959V13.28H122.394V14.2531H121.13V17.2631C121.13 17.8763 121.382 18.1448 121.955 18.1448C122.101 18.1444 122.248 18.1354 122.394 18.1182V19.0805C122.187 19.1176 121.977 19.1373 121.767 19.1395C120.487 19.1395 119.978 18.6875 119.978 17.5589V14.253H119.052V13.2799H119.978V11.7959H121.13Z" fill="white"/>
<path d="M123.966 10.9681H125.107V14.194H125.198C125.351 13.8569 125.604 13.5753 125.922 13.3877C126.24 13.2 126.608 13.1154 126.976 13.1454C127.258 13.13 127.541 13.1773 127.803 13.2839C128.065 13.3906 128.3 13.554 128.492 13.7624C128.684 13.9708 128.827 14.2192 128.913 14.4898C128.998 14.7604 129.022 15.0465 128.985 15.3277V19.1071H127.833V15.6127C127.833 14.6777 127.399 14.2042 126.585 14.2042C126.388 14.1879 126.189 14.2152 126.002 14.2841C125.816 14.3531 125.647 14.4621 125.507 14.6035C125.367 14.7448 125.26 14.9151 125.192 15.1025C125.125 15.2899 125.099 15.4898 125.117 15.6882V19.1071H123.966L123.966 10.9681Z" fill="white"/>
<path d="M135.697 17.5266C135.54 18.0616 135.201 18.5244 134.739 18.834C134.277 19.1436 133.721 19.2802 133.169 19.2201C132.785 19.2303 132.403 19.1564 132.05 19.0037C131.697 18.8509 131.382 18.6228 131.125 18.3353C130.869 18.0479 130.678 17.7078 130.566 17.3389C130.453 16.9699 130.422 16.5808 130.475 16.1987C130.424 15.8153 130.455 15.4254 130.567 15.0553C130.679 14.6852 130.869 14.3436 131.124 14.0537C131.379 13.7637 131.693 13.532 132.045 13.3745C132.397 13.2169 132.779 13.1371 133.164 13.1404C134.787 13.1404 135.766 14.2532 135.766 16.0914V16.4945H131.647V16.5592C131.629 16.774 131.656 16.9903 131.726 17.194C131.797 17.3978 131.908 17.5846 132.055 17.7425C132.201 17.9004 132.378 18.0259 132.576 18.1109C132.773 18.1959 132.986 18.2386 133.201 18.2362C133.476 18.2694 133.755 18.2196 134.002 18.0933C134.249 17.9669 134.453 17.7696 134.588 17.5265L135.697 17.5266ZM131.647 15.6401H134.593C134.608 15.4436 134.581 15.2463 134.515 15.0607C134.449 14.8752 134.345 14.7056 134.21 14.5628C134.075 14.4199 133.912 14.3071 133.73 14.2315C133.549 14.1558 133.354 14.1191 133.158 14.1236C132.959 14.1211 132.761 14.1586 132.577 14.2339C132.392 14.3093 132.225 14.4209 132.084 14.5622C131.943 14.7035 131.832 14.8717 131.757 15.0568C131.682 15.2419 131.645 15.4403 131.647 15.6401H131.647Z" fill="white"/>
</g>
<defs>
<clipPath id="clip0">
<rect width="155" height="52" fill="white"/>
</clipPath>
</defs>
</svg>
